<svg width="32" height="32" viewBox="0 0 32 32" fill="none" xmlns="http://www.w3.org/2000/svg">
<g clip-path="url(#clip0_11135_15893)">
<rect width="32" height="32" rx="4" fill="#E3E3E8"/>
<g filter="url(#filter0_dddd_11135_15893)">
<rect x="2" y="2" width="28" height="28" rx="3" fill="white"/>
<path fill-rule="evenodd" clip-rule="evenodd" d="M15.9997 7.17822C21.0591 7.17822 25.1611 11.2803 25.1611 16.3396C25.161 21.3988 21.059 25.5 15.9997 25.5C10.9406 25.4999 6.83944 21.3987 6.83929 16.3396C6.83929 11.2804 10.9405 7.17837 15.9997 7.17822ZM15.9997 11.4532C13.3016 11.4534 11.1143 13.6414 11.1143 16.3396C11.1144 19.0377 13.3016 21.2249 15.9997 21.225C18.698 21.225 20.886 19.0378 20.8861 16.3396C20.8861 13.6413 18.698 11.4532 15.9997 11.4532Z" fill="#A7F3D0"/>
<path d="M16 18.375C17.1243 18.375 18.0357 17.4636 18.0357 16.3393C18.0357 15.215 17.1243 14.3036 16 14.3036C14.8757 14.3036 13.9643 15.215 13.9643 16.3393C13.9643 17.4636 14.8757 18.375 16 18.375Z" fill="#626BD0"/>
<path d="M15.9999 6.5C20.1287 6.5 23.6633 9.04322 25.1233 12.6485L16.0283 16.3393L11.7999 7.439C13.0737 6.83685 14.4975 6.5 15.9999 6.5Z" fill="#626BD0"/>
<path d="M15.9998 14.3032C16.8567 14.3032 17.5883 14.8338 17.8886 15.5835L16.0285 16.3396L15.15 14.4906C15.4087 14.3714 15.6962 14.3033 15.9998 14.3032Z" fill="white"/>
</g>
</g>
<defs>
<filter id="filter0_dddd_11135_15893" x="0" y="1" width="32" height="37" filterUnits="userSpaceOnUse" color-interpolation-filters="sRGB">
<feFlood flood-opacity="0" result="BackgroundImageFix"/>
<feColorMatrix in="SourceAlpha" type="matrix" values="0 0 0 0 0 0 0 0 0 0 0 0 0 0 0 0 0 0 127 0" result="hardAlpha"/>
<feOffset/>
<feGaussianBlur stdDeviation="0.5"/>
<feColorMatrix type="matrix" values="0 0 0 0 0 0 0 0 0 0 0 0 0 0 0 0 0 0 0.1 0"/>
<feBlend mode="normal" in2="BackgroundImageFix" result="effect1_dropShadow_11135_15893"/>
<feColorMatrix in="SourceAlpha" type="matrix" values="0 0 0 0 0 0 0 0 0 0 0 0 0 0 0 0 0 0 127 0" result="hardAlpha"/>
<feOffset dy="1"/>
<feGaussianBlur stdDeviation="0.5"/>
<feColorMatrix type="matrix" values="0 0 0 0 0 0 0 0 0 0 0 0 0 0 0 0 0 0 0.09 0"/>
<feBlend mode="normal" in2="effect1_dropShadow_11135_15893" result="effect2_dropShadow_11135_15893"/>
<feColorMatrix in="SourceAlpha" type="matrix" values="0 0 0 0 0 0 0 0 0 0 0 0 0 0 0 0 0 0 127 0" result="hardAlpha"/>
<feOffset dy="3"/>
<feGaussianBlur stdDeviation="1"/>
<feColorMatrix type="matrix" values="0 0 0 0 0 0 0 0 0 0 0 0 0 0 0 0 0 0 0.05 0"/>
<feBlend mode="normal" in2="effect2_dropShadow_11135_15893" result="effect3_dropShadow_11135_15893"/>
<feColorMatrix in="SourceAlpha" type="matrix" values="0 0 0 0 0 0 0 0 0 0 0 0 0 0 0 0 0 0 127 0" result="hardAlpha"/>
<feOffset dy="6"/>
<feGaussianBlur stdDeviation="1"/>
<feColorMatrix type="matrix" values="0 0 0 0 0 0 0 0 0 0 0 0 0 0 0 0 0 0 0.01 0"/>
<feBlend mode="normal" in2="effect3_dropShadow_11135_15893" result="effect4_dropShadow_11135_15893"/>
<feBlend mode="normal" in="SourceGraphic" in2="effect4_dropShadow_11135_15893" result="shape"/>
</filter>
<clipPath id="clip0_11135_15893">
<rect width="32" height="32" rx="4" fill="white"/>
</clipPath>
</defs>
</svg>
